<svg width="1386" height="1202" viewBox="0 0 1386 1202" fill="none" xmlns="http://www.w3.org/2000/svg" preserveAspectRatio="none">
<path d="M225.167 752.91C18.5743 649.708 -56.1058 663.603 47.0971 457.011C150.3 250.418 763.483 -3.40116 970.075 99.8017C1176.67 203.005 794.665 498.566 691.462 705.159C588.259 911.751 431.759 856.113 225.167 752.91Z" stroke="#F5F5F5" stroke-miterlimit="10"/>
<path d="M231.625 755.05C26.3594 644.465 -50.3389 659.92 53.0456 452.959C156.43 245.998 761.414 -0.0963046 968.375 103.288C1175.34 206.673 804.155 497.275 700.771 704.23C597.386 911.186 433.328 863.717 231.625 755.05Z" stroke="#F5F5F5" stroke-miterlimit="10"/>
<path d="M239.007 755.226C34.9172 637.083 -43.648 654.269 59.9182 446.945C163.484 239.621 760.274 1.24076 967.598 104.807C1174.92 208.373 814.565 494.015 710.999 701.339C607.432 908.663 435.786 869.136 239.007 755.226Z" stroke="#F5F5F5" stroke-miterlimit="10"/>
<path d="M246.394 755.292C43.3434 629.419 -36.9575 648.512 66.7903 440.819C170.538 233.127 759.134 2.4719 966.826 106.22C1174.52 209.968 824.984 490.65 721.236 698.337C617.488 906.024 438.223 874.212 246.394 755.292Z" stroke="#F5F5F5" stroke-miterlimit="10"/>
<path d="M253.74 755.302C51.6231 621.518 -30.3024 642.699 73.6271 434.639C177.557 226.578 757.958 3.64254 966.014 107.577C1174.07 211.512 835.363 487.229 731.433 695.285C627.504 903.34 440.619 879.005 253.74 755.302Z" stroke="#F5F5F5" stroke-miterlimit="10"/>
<path d="M261.041 755.282C59.7668 613.404 -23.6977 636.851 80.4185 428.432C184.535 220.013 756.737 4.79286 965.161 108.909C1173.59 213.025 845.701 483.783 741.585 692.202C637.469 900.621 442.986 883.536 261.041 755.282Z" stroke="#F5F5F5" stroke-miterlimit="10"/>
<path d="M268.286 755.247C67.784 605.094 -17.1437 630.993 87.1541 422.206C191.452 213.419 755.455 5.91806 964.242 110.216C1173.03 214.514 855.974 480.311 751.676 689.099C647.378 897.886 445.322 887.83 268.286 755.247Z" stroke="#F5F5F5" stroke-miterlimit="10"/>
<path d="M275.456 755.201C75.6806 596.587 -10.6699 625.125 93.8146 415.97C198.299 206.814 754.103 7.03824 963.259 111.518C1172.41 215.997 866.181 476.83 761.697 685.986C657.212 895.141 447.633 891.897 275.456 755.201Z" stroke="#F5F5F5" stroke-miterlimit="10"/>
<path d="M282.561 755.146C83.486 587.894 -4.25714 619.242 100.404 409.723C205.065 200.204 752.68 8.14323 962.199 112.809C1171.72 217.475 876.313 473.343 771.647 682.867C666.98 892.391 449.928 895.752 282.561 755.146Z" stroke="#F5F5F5" stroke-miterlimit="10"/>
<path d="M289.584 755.08C91.2006 579.013 2.06991 613.354 106.918 403.467C211.765 193.579 751.176 9.24311 961.064 114.086C1170.95 218.929 886.368 469.842 781.521 679.729C676.673 889.616 452.209 899.405 289.584 755.08Z" stroke="#F5F5F5" stroke-miterlimit="10"/>
<path d="M296.527 755.009C98.8447 569.957 8.32144 607.461 113.351 397.205C218.38 186.949 749.597 10.333 959.848 115.362C1170.1 220.392 896.344 466.34 791.309 676.595C686.275 886.851 454.474 902.866 296.527 755.009Z" stroke="#F5F5F5" stroke-miterlimit="10"/>
<path d="M303.384 754.929C106.439 560.723 14.4825 601.552 119.699 390.933C224.915 180.315 747.932 11.4178 958.551 116.629C1169.17 221.84 906.233 462.833 801.022 673.452C695.811 884.071 456.74 906.151 303.384 754.929Z" stroke="#F5F5F5" stroke-miterlimit="10"/>
<path d="M310.149 754.838C113.991 551.318 20.5567 595.639 125.954 384.657C231.352 173.675 746.176 12.4925 957.158 117.89C1168.14 223.288 916.031 459.312 810.639 670.299C705.246 881.286 458.995 909.264 310.149 754.838Z" stroke="#F5F5F5" stroke-miterlimit="10"/>
<path d="M316.82 754.727C121.51 541.742 26.5362 589.705 132.111 378.355C237.685 167.004 744.314 13.5471 955.665 119.121C1167.02 224.696 925.729 455.764 820.15 667.115C714.571 878.465 461.246 912.216 316.82 754.727Z" stroke="#F5F5F5" stroke-miterlimit="10"/>
<path d="M323.395 754.601C129.008 532.004 32.4144 583.751 138.175 372.038C243.936 160.324 742.367 14.5814 954.081 120.342C1165.79 226.103 935.336 452.207 829.575 663.926C723.814 875.645 463.486 915.021 323.395 754.601Z" stroke="#F5F5F5" stroke-miterlimit="10"/>
<path d="M329.858 754.449C136.49 522.104 38.1866 577.777 144.129 365.695C250.072 153.613 740.308 15.5905 952.39 121.538C1164.47 227.486 944.837 448.625 838.894 660.707C732.952 872.789 465.716 917.685 329.858 754.449Z" stroke="#F5F5F5" stroke-miterlimit="10"/>
<path d="M336.215 754.268C143.967 512.043 43.8474 571.773 149.977 359.323C256.106 146.872 738.143 16.5744 950.589 122.699C1163.03 228.823 954.227 445.007 848.097 657.458C741.968 869.908 467.926 920.218 336.215 754.268Z" stroke="#F5F5F5" stroke-miterlimit="10"/>
<path d="M342.462 754.061C151.455 501.836 49.4027 565.739 155.709 352.925C262.015 140.111 735.858 17.5331 948.672 123.839C1161.49 230.145 963.501 441.369 857.19 654.183C750.879 866.997 470.116 922.625 342.462 754.061Z" stroke="#F5F5F5" stroke-miterlimit="10"/>
<path d="M348.587 753.813C158.938 491.477 54.832 559.669 161.325 346.487C267.817 133.305 733.461 18.4463 946.638 124.939C1159.82 231.432 972.659 437.691 866.166 650.873C759.673 864.055 472.28 924.915 348.587 753.813Z" stroke="#F5F5F5" stroke-miterlimit="10"/>
<path d="M354.586 753.526C166.431 480.977 60.1398 553.558 166.814 340.013C273.488 126.468 730.938 19.3243 944.484 125.999C1158.03 232.673 981.69 433.972 875.016 647.518C768.341 861.063 474.41 927.095 354.586 753.526Z" stroke="#F5F5F5" stroke-miterlimit="10"/>
<path d="M360.455 753.193C173.934 470.331 65.3118 547.398 172.173 333.489C279.034 119.58 728.28 20.1568 942.193 127.013C1156.11 233.869 990.591 430.208 883.735 644.122C776.879 858.036 476.494 929.169 360.455 753.193Z" stroke="#F5F5F5" stroke-miterlimit="10"/>
<path d="M366.197 752.81C181.452 459.554 70.3624 541.192 177.4 326.915C284.438 112.638 725.494 20.9389 939.771 127.976C1154.05 235.014 999.36 426.394 892.322 640.671C785.28 854.948 478.537 931.142 366.197 752.81Z" stroke="#F5F5F5" stroke-miterlimit="10"/>
<path d="M371.798 752.376C188.985 448.64 75.2672 534.935 182.491 320.29C289.716 105.645 722.574 21.6654 937.219 128.89C1151.86 236.114 1008 422.529 900.774 637.174C793.55 851.82 480.526 933.024 371.798 752.376Z" stroke="#F5F5F5" stroke-miterlimit="10"/>
<path d="M377.257 751.886C196.528 437.605 80.0351 528.618 187.441 313.609C294.847 98.6009 719.511 22.3365 934.519 129.747C1149.53 237.158 1016.49 418.609 909.084 633.617C801.678 848.626 482.453 934.81 377.257 751.886Z" stroke="#F5F5F5" stroke-miterlimit="10"/>
<path d="M382.58 751.336C204.086 426.449 84.6666 522.245 192.254 306.869C299.842 91.4917 716.306 22.9521 931.683 130.54C1147.06 238.127 1024.85 414.623 917.258 629.999C809.67 845.376 484.319 936.515 382.58 751.336Z" stroke="#F5F5F5" stroke-miterlimit="10"/>
<path d="M387.771 750.736C211.674 415.193 89.162 515.822 196.936 300.077C304.71 84.3319 712.976 23.5172 928.716 131.286C1144.46 239.056 1033.07 410.591 925.295 626.331C817.521 842.071 486.125 938.15 387.771 750.736Z" stroke="#F5F5F5" stroke-miterlimit="10"/>
<path d="M392.843 750.08C219.304 403.83 93.5421 509.339 201.493 293.235C309.444 77.1318 709.52 24.0267 925.629 131.983C1141.74 239.938 1041.17 406.509 933.217 622.618C825.261 838.726 487.887 939.714 392.843 750.08Z" stroke="#F5F5F5" stroke-miterlimit="10"/>
<path d="M397.807 749.384C226.983 392.397 97.8103 502.82 205.948 286.348C314.085 69.8762 705.963 24.491 922.434 132.628C1138.91 240.766 1049.17 402.377 941.028 618.849C832.89 835.32 489.612 941.233 397.807 749.384Z" stroke="#F5F5F5" stroke-miterlimit="10"/>
<path d="M402.713 748.657C234.759 380.893 102.024 496.271 210.344 279.43C318.663 62.5903 702.341 24.9299 919.181 133.249C1136.02 241.568 1057.1 398.219 948.784 615.059C840.465 831.899 491.339 942.721 402.713 748.657Z" stroke="#F5F5F5" stroke-miterlimit="10"/>
<path d="M407.601 747.936C242.68 369.379 106.216 489.721 214.722 272.518C323.228 55.3146 698.707 25.369 915.91 133.875C1133.11 242.381 1065.02 394.067 956.522 611.27C848.022 828.474 493.108 944.21 407.601 747.936Z" stroke="#F5F5F5" stroke-miterlimit="10"/>
<path d="M412.485 747.209C250.748 357.834 110.41 483.172 219.092 265.6C327.774 48.0287 695.065 25.8079 912.636 134.495C1130.21 243.183 1072.94 389.909 964.253 607.476C855.565 825.043 494.941 945.708 412.485 747.209Z" stroke="#F5F5F5" stroke-miterlimit="10"/>
<path d="M417.375 746.492C258.978 346.295 114.603 476.633 223.472 258.693C332.341 40.7529 691.427 26.2519 909.367 135.121C1127.31 243.99 1080.86 385.757 971.993 603.692C863.124 821.627 496.823 947.222 417.375 746.492Z" stroke="#F5F5F5" stroke-miterlimit="10"/>
<path d="M422.254 745.771C267.343 334.74 118.79 470.084 227.841 251.781C336.892 33.4772 687.784 26.6959 906.087 135.747C1124.39 244.797 1088.77 381.604 979.723 599.902C870.672 818.201 498.755 948.746 422.254 745.771Z" stroke="#F5F5F5" stroke-miterlimit="10"/>
<path d="M427.137 745.054C275.859 323.196 122.977 463.545 232.215 244.878C341.452 26.2115 684.145 27.145 902.812 136.382C1121.48 245.62 1096.69 377.462 987.452 596.128C878.224 814.795 500.732 950.29 427.137 745.054Z" stroke="#F5F5F5" stroke-miterlimit="10"/>
<path d="M432.022 744.338C284.518 311.652 127.171 457.006 236.59 237.971C346.009 18.9358 680.508 27.594 899.543 137.013C1118.58 246.432 1104.61 373.314 995.192 592.344C885.773 811.379 502.761 951.854 432.022 744.338Z" stroke="#F5F5F5" stroke-miterlimit="10"/>
<path d="M436.906 743.621C293.318 300.117 131.359 450.462 240.96 231.063C350.561 11.665 676.865 28.038 896.263 137.639C1115.66 247.239 1112.52 369.162 1002.92 588.56C893.327 807.958 504.835 953.438 436.906 743.621Z" stroke="#F5F5F5" stroke-miterlimit="10"/>
<path d="M441.785 742.905C302.244 288.598 135.547 443.922 245.329 224.156C355.112 4.38925 673.217 28.4871 892.984 138.269C1112.75 248.052 1120.43 365.014 1010.65 584.776C900.865 804.537 506.949 955.048 441.785 742.905Z" stroke="#F5F5F5" stroke-miterlimit="10"/>
<path d="M446.669 742.189C311.305 277.099 139.739 437.378 249.703 217.248C359.667 -2.88141 669.579 28.9311 889.708 138.9C1109.84 248.869 1128.35 360.862 1018.38 580.996C908.418 801.131 509.098 956.677 446.669 742.189Z" stroke="#F5F5F5" stroke-miterlimit="10"/>
<path d="M451.553 741.467C320.488 265.616 143.927 430.839 254.078 210.341C364.229 -10.1572 665.941 29.3801 886.439 139.526C1106.94 249.671 1136.27 356.709 1026.12 577.207C915.976 797.705 511.283 958.332 451.553 741.467Z" stroke="#F5F5F5" stroke-miterlimit="10"/>
<path d="M456.438 740.751C329.793 254.157 148.121 424.295 258.448 203.428C368.776 -17.4381 662.299 29.8191 883.16 140.151C1104.02 250.484 1144.18 352.556 1033.85 573.423C923.515 794.289 513.509 960.013 456.438 740.751Z" stroke="#F5F5F5" stroke-miterlimit="10"/>
<path d="M461.327 740.029C339.213 242.719 152.313 417.746 262.827 196.516C373.341 -24.7138 658.66 30.2632 879.89 140.777C1101.12 251.291 1152.1 348.404 1041.59 569.634C931.073 790.864 515.764 961.723 461.327 740.029Z" stroke="#F5F5F5" stroke-miterlimit="10"/>
<path d="M466.211 739.302C348.739 231.31 156.506 411.197 267.202 189.604C377.897 -31.9895 655.022 30.7022 876.62 141.398C1098.22 252.093 1160.02 344.246 1049.33 565.844C938.626 787.443 518.044 963.454 466.211 739.302Z" stroke="#F5F5F5" stroke-miterlimit="10"/>
<path d="M471.1 738.576C358.376 219.933 160.699 404.647 271.581 182.686C382.464 -39.2754 651.39 31.1411 873.351 142.018C1095.31 252.896 1167.94 340.089 1057.06 562.05C946.179 784.017 520.36 965.214 471.1 738.576Z" stroke="#F5F5F5" stroke-miterlimit="10"/>
<path d="M475.99 737.849C368.109 208.59 164.898 398.098 275.956 175.768C387.015 -46.5613 647.747 31.575 870.077 142.639C1092.41 253.703 1175.86 335.931 1064.8 558.261C953.738 780.591 522.697 967.001 475.99 737.849Z" stroke="#F5F5F5" stroke-miterlimit="10"/>
<path d="M480.878 737.118C377.937 197.273 169.095 391.539 280.335 168.846C391.576 -53.8472 644.114 32.0089 866.807 143.254C1089.5 254.5 1183.78 331.769 1072.54 554.462C961.296 777.155 525.062 968.817 480.878 737.118Z" stroke="#F5F5F5" stroke-miterlimit="10"/>
<path d="M485.773 736.381C387.858 185.991 173.294 384.98 284.721 161.918C396.148 -61.1431 640.487 32.4328 863.548 143.865C1086.61 255.297 1191.71 327.601 1080.28 550.662C968.855 773.724 527.45 970.654 485.773 736.381Z" stroke="#F5F5F5" stroke-miterlimit="10"/>
<path d="M490.663 735.644C397.869 174.749 177.492 378.415 289.1 154.991C400.709 -68.434 636.854 32.8617 860.279 144.471C1083.7 256.079 1199.63 323.428 1088.02 546.853C976.413 770.277 529.857 972.526 490.663 735.644Z" stroke="#F5F5F5" stroke-miterlimit="10"/>
<path d="M495.56 734.903C407.954 163.538 181.693 371.851 293.484 148.063C405.274 -75.7249 633.22 33.2854 857.013 145.081C1080.81 256.877 1207.56 319.26 1095.76 543.053C983.97 766.841 532.282 974.418 495.56 734.903Z" stroke="#F5F5F5" stroke-miterlimit="10"/>
<path d="M500.445 734.186C418.106 152.392 185.882 365.312 297.859 141.15C409.836 -83.0108 629.582 33.7295 853.739 145.707C1077.9 257.684 1215.47 315.108 1103.5 539.264C991.519 763.42 534.715 976.365 500.445 734.186Z" stroke="#F5F5F5" stroke-miterlimit="10"/>
<path d="M505.274 733.566C428.278 141.382 190.024 358.869 302.183 134.344C414.342 -90.1806 625.894 34.2743 850.419 146.433C1074.94 258.592 1223.34 311.056 1111.19 535.581C999.022 760.105 537.117 978.439 505.274 733.566Z" stroke="#F5F5F5" stroke-miterlimit="10"/>
<path d="M510.032 733.106C438.439 130.57 194.086 352.582 306.426 127.694C418.767 -97.1939 622.125 34.9808 847.013 147.321C1071.9 259.662 1231.13 307.166 1118.78 532.054C1006.44 756.942 539.453 980.7 510.032 733.106Z" stroke="#F5F5F5" stroke-miterlimit="10"/>
<path d="M514.699 732.819C448.572 119.974 198.057 346.471 310.584 121.215C423.111 -104.041 618.265 35.8537 843.522 148.381C1068.78 260.908 1238.83 303.448 1126.3 528.704C1013.78 753.955 541.713 983.162 514.699 732.819Z" stroke="#F5F5F5" stroke-miterlimit="10"/>
<path d="M523.533 736.886C450.68 134.036 200.317 361.931 313.036 136.287C425.755 -89.3582 622.932 45.844 848.582 158.563C1074.23 271.282 1241.92 316.526 1129.19 542.176C1016.47 767.825 553.504 984.882 523.533 736.886Z" stroke="#F5F5F5" stroke-miterlimit="10"/>
<path d="M532.363 740.967C452.875 148.169 202.567 377.406 315.483 151.368C428.398 -74.6705 627.594 55.8393 853.632 168.755C1079.67 281.671 1245 329.619 1132.08 555.657C1019.16 781.696 565.311 986.663 532.363 740.967Z" stroke="#F5F5F5" stroke-miterlimit="10"/>
<path d="M541.189 745.059C455.156 162.367 204.813 392.891 317.926 166.464C431.038 -59.9625 632.252 65.8498 858.684 178.957C1085.12 292.065 1248.07 342.717 1134.96 569.149C1021.85 795.581 577.129 988.49 541.189 745.059Z" stroke="#F5F5F5" stroke-miterlimit="10"/>
<path d="M550.004 749.162C457.528 176.631 207.054 408.391 320.358 181.571C433.662 -45.2495 636.899 75.8704 863.72 189.175C1090.54 302.479 1251.14 355.831 1137.83 582.656C1024.52 809.482 588.966 990.372 550.004 749.162Z" stroke="#F5F5F5" stroke-miterlimit="10"/>
<path d="M558.818 753.279C459.999 190.956 209.288 423.896 322.789 196.687C436.29 -30.5214 641.545 85.901 868.759 199.402C1095.97 312.903 1254.2 368.96 1140.7 596.174C1027.2 823.382 600.822 992.299 558.818 753.279Z" stroke="#F5F5F5" stroke-miterlimit="10"/>
<path d="M567.628 757.396C462.584 205.341 211.519 439.412 325.217 211.809C438.915 -15.7933 646.188 95.9367 873.791 209.634C1101.39 323.332 1257.26 382.088 1143.56 609.696C1029.87 837.298 612.701 994.277 567.628 757.396Z" stroke="#F5F5F5" stroke-miterlimit="10"/>
<path d="M576.433 761.518C465.278 219.771 213.744 454.927 327.639 226.931C441.533 -1.06498 650.82 105.973 878.816 219.867C1106.81 333.762 1260.31 395.217 1146.42 623.218C1032.54 851.214 624.608 996.296 576.433 761.518Z" stroke="#F5F5F5" stroke-miterlimit="10"/>
<path d="M585.241 765.641C468.097 234.252 215.978 470.447 330.065 242.058C444.151 13.6682 655.461 116.013 883.85 230.105C1112.24 344.196 1263.38 408.356 1149.29 636.745C1035.2 865.13 636.54 998.349 585.241 765.641Z" stroke="#F5F5F5" stroke-miterlimit="10"/>
<path d="M594.051 769.763C471.054 248.773 218.209 485.957 332.497 257.179C446.785 28.4013 660.108 126.049 888.886 240.337C1117.66 354.625 1266.44 421.484 1152.16 650.268C1037.87 879.051 648.513 1000.44 594.051 769.763Z" stroke="#F5F5F5" stroke-miterlimit="10"/>
<path d="M602.871 773.865C474.147 263.32 220.449 501.457 334.929 272.286C449.409 43.1143 664.755 136.07 893.927 250.554C1123.1 365.039 1269.51 434.598 1155.03 663.77C1040.55 892.941 660.527 1002.55 602.871 773.865Z" stroke="#F5F5F5" stroke-miterlimit="10"/>
<path d="M611.691 777.957C477.387 277.887 222.689 516.942 337.366 287.382C452.043 57.8223 669.407 146.08 898.968 260.757C1128.53 375.433 1272.58 447.701 1157.9 677.262C1043.23 906.827 672.586 1004.69 611.691 777.957Z" stroke="#F5F5F5" stroke-miterlimit="10"/>
<path d="M620.532 782.024C480.793 292.463 224.956 532.402 339.829 302.448C454.703 72.4948 674.081 156.06 904.034 270.934C1133.99 385.807 1275.67 460.775 1160.8 690.728C1045.93 920.682 684.697 1006.83 620.532 782.024Z" stroke="#F5F5F5" stroke-miterlimit="10"/>
<path d="M629.38 786.06C484.359 307.035 227.225 547.837 342.29 317.489C457.355 87.1423 678.756 166.02 909.104 281.085C1139.45 396.15 1278.77 473.823 1163.7 704.17C1048.63 934.522 696.865 1008.98 629.38 786.06Z" stroke="#F5F5F5" stroke-miterlimit="10"/>
<path d="M638.241 790.071C488.094 321.607 229.512 563.241 344.773 332.505C460.035 101.77 683.455 175.95 914.196 291.212C1144.94 406.474 1281.89 486.85 1166.63 717.586C1051.36 948.322 709.097 1011.13 638.241 790.071Z" stroke="#F5F5F5" stroke-miterlimit="10"/>
<path d="M647.122 794.052C492.009 336.163 231.812 578.615 347.271 347.486C462.73 116.356 688.168 185.844 919.297 301.303C1150.43 416.762 1285.02 499.838 1169.56 730.967C1054.1 962.096 721.388 1013.28 647.122 794.052Z" stroke="#F5F5F5" stroke-miterlimit="10"/>
<path d="M656.022 797.998C496.106 350.695 234.133 593.954 349.788 362.431C465.444 130.908 692.9 195.704 924.423 311.359C1155.95 427.015 1288.17 512.795 1172.52 744.313C1056.85 975.836 733.749 1015.42 656.022 797.998Z" stroke="#F5F5F5" stroke-miterlimit="10"/>
<path d="M664.932 801.908C500.384 365.201 236.464 609.257 352.316 377.345C468.168 145.434 697.643 205.532 929.554 321.385C1161.47 437.237 1291.33 525.717 1175.48 757.628C1059.62 989.539 746.186 1017.55 664.932 801.908Z" stroke="#F5F5F5" stroke-miterlimit="10"/>
<path d="M673.868 805.773C504.855 379.662 238.825 624.52 354.869 392.215C470.913 159.91 702.411 215.316 934.716 331.36C1167.02 447.404 1294.52 538.588 1178.47 770.893C1062.43 1003.2 758.7 1019.65 673.868 805.773Z" stroke="#F5F5F5" stroke-miterlimit="10"/>
<path d="M682.829 809.598C509.532 394.072 241.207 639.737 357.448 407.039C473.688 174.341 707.204 225.054 939.898 341.295C1172.59 457.535 1297.73 551.424 1181.49 784.118C1065.25 1016.82 771.294 1021.73 682.829 809.598Z" stroke="#F5F5F5" stroke-miterlimit="10"/>
<path d="M691.811 813.372C514.402 408.421 243.609 654.904 360.047 421.818C476.484 188.731 712.014 234.747 945.106 351.184C1178.2 467.622 1300.96 564.21 1184.52 797.297C1068.09 1030.38 783.984 1023.76 691.811 813.372Z" stroke="#F5F5F5" stroke-miterlimit="10"/>
<path d="M700.816 817.091C519.472 422.69 246.035 670.016 362.669 436.536C479.304 203.055 716.851 244.379 950.332 361.013C1183.81 477.647 1304.22 576.935 1187.59 810.415C1070.95 1043.9 796.758 1025.75 700.816 817.091Z" stroke="#F5F5F5" stroke-miterlimit="10"/>
<path d="M709.858 820.754C524.754 436.879 248.502 685.077 365.328 451.203C482.154 217.329 721.725 253.96 955.599 370.791C1189.47 487.622 1307.52 589.614 1190.68 823.483C1073.85 1057.36 809.64 1027.68 709.858 820.754Z" stroke="#F5F5F5" stroke-miterlimit="10"/>
<path d="M718.929 824.346C530.249 450.961 250.995 700.063 368.017 465.8C485.04 231.538 726.629 263.476 960.892 380.499C1195.15 497.522 1310.83 602.218 1193.81 836.481C1076.78 1070.74 822.622 1029.55 718.929 824.346Z" stroke="#F5F5F5" stroke-miterlimit="10"/>
<path d="M728.037 827.868C535.95 464.932 253.522 714.978 370.742 480.321C487.962 245.665 731.569 272.912 966.225 390.131C1200.88 507.351 1314.2 614.746 1196.98 849.403C1079.75 1084.06 835.72 1031.33 728.037 827.868Z" stroke="#F5F5F5" stroke-miterlimit="10"/>
<path d="M737.185 831.309C541.869 478.767 256.096 729.812 373.507 494.767C490.918 259.722 736.549 282.271 971.593 399.688C1206.64 517.104 1317.59 627.204 1200.17 862.249C1082.76 1097.29 848.935 1033.01 737.185 831.309Z" stroke="#F5F5F5" stroke-miterlimit="10"/>
<path d="M746.378 834.659C548 492.456 258.71 744.555 376.323 509.117C493.936 273.678 741.575 291.535 977.018 409.143C1212.46 526.751 1321.04 639.556 1203.43 874.994C1085.82 1110.44 862.281 1034.59 746.378 834.659Z" stroke="#F5F5F5" stroke-miterlimit="10"/>
<path d="M755.622 837.909C554.352 505.973 261.374 759.202 379.184 523.371C496.994 287.539 746.651 300.703 982.482 418.508C1218.31 536.313 1324.53 651.817 1206.73 887.648C1088.92 1123.48 875.752 1036.03 755.622 837.909Z" stroke="#F5F5F5" stroke-miterlimit="10"/>
<path d="M764.915 841.057C560.916 519.314 264.088 773.744 382.095 537.518C500.101 301.293 751.776 309.765 987.997 427.766C1224.22 545.768 1328.08 663.977 1210.07 900.197C1092.07 1136.42 889.365 1037.34 764.915 841.057Z" stroke="#F5F5F5" stroke-miterlimit="10"/>
<path d="M774.27 844.09C567.698 532.458 266.868 788.169 385.067 551.555C503.265 314.941 756.963 318.716 993.577 436.914C1230.19 555.112 1331.68 676.02 1213.49 912.634C1095.29 1149.25 903.125 1038.48 774.27 844.09Z" stroke="#F5F5F5" stroke-miterlimit="10"/>
<path d="M783.686 846.996C574.692 545.384 269.705 802.468 388.1 565.466C506.495 328.464 762.212 327.54 999.214 445.936C1236.22 564.331 1335.35 687.938 1216.96 924.946C1098.56 1161.95 917.036 1039.44 783.686 846.996Z" stroke="#F5F5F5" stroke-miterlimit="10"/>
<path d="M793.167 849.771C581.892 558.084 272.606 816.637 391.198 579.241C509.79 341.845 767.525 336.229 1004.92 454.821C1242.32 573.413 1339.08 699.725 1220.49 937.121C1101.91 1174.52 931.104 1040.21 793.167 849.771Z" stroke="#F5F5F5" stroke-miterlimit="10"/>
<path d="M802.712 852.415C589.293 570.542 275.577 830.678 394.361 592.889C513.145 355.099 772.903 344.791 1010.69 463.58C1248.47 582.369 1342.88 711.38 1224.09 949.169C1105.3 1186.96 945.332 1040.77 802.712 852.415Z" stroke="#F5F5F5" stroke-miterlimit="10"/>
<path d="M812.334 854.918C596.897 582.747 278.62 844.574 397.6 606.391C516.581 368.208 778.352 353.207 1016.54 472.193C1254.72 591.179 1346.75 722.889 1227.77 961.072C1108.79 1199.26 959.716 1041.12 812.334 854.918Z" stroke="#F5F5F5" stroke-miterlimit="10"/>
<path d="M822.021 857.274C604.682 594.685 281.728 858.323 400.905 619.752C520.082 381.18 783.872 361.482 1022.44 480.659C1261.01 599.837 1350.69 734.257 1231.51 972.828C1112.34 1211.4 974.273 1041.22 822.021 857.274Z" stroke="#F5F5F5" stroke-miterlimit="10"/>
<path d="M831.781 859.489C612.645 606.356 284.908 871.931 404.282 632.971C523.656 394.011 789.464 369.621 1028.43 488.99C1267.39 608.359 1354.7 745.483 1235.33 984.448C1115.95 1223.41 988.987 1041.09 831.781 859.489Z" stroke="#F5F5F5" stroke-miterlimit="10"/>
<path d="M841.614 861.563C620.773 617.749 288.166 885.403 407.732 646.044C527.298 406.686 795.129 377.608 1034.48 497.174C1273.84 616.74 1358.78 756.563 1239.21 995.922C1119.64 1235.28 1003.87 1040.69 841.614 861.563Z" stroke="#F5F5F5" stroke-miterlimit="10"/>
<path d="M851.514 863.5C629.043 628.869 291.487 898.734 411.25 658.986C531.012 419.239 800.862 385.464 1040.61 505.227C1280.36 624.989 1362.94 767.517 1243.17 1007.26C1123.41 1247.01 1018.9 1040.04 851.514 863.5Z" stroke="#F5F5F5" stroke-miterlimit="10"/>
<path d="M862.71 862.844C638.68 637.25 296.103 909.471 416.062 669.33C536.022 429.189 807.889 390.721 1048.02 510.681C1288.16 630.64 1368.38 775.868 1248.42 1016.01C1128.46 1256.15 1035.32 1036.66 862.71 862.844Z" stroke="#F5F5F5" stroke-miterlimit="10"/>
<path d="M874.173 861.643C648.635 644.934 300.992 919.663 421.143 679.134C541.294 438.604 815.18 395.439 1055.71 515.595C1296.25 635.751 1374.1 783.684 1253.94 1024.21C1133.79 1264.74 1052.08 1032.59 874.173 861.643Z" stroke="#F5F5F5" stroke-miterlimit="10"/>
<path d="M885.642 860.448C658.635 652.468 305.881 929.86 426.234 688.937C546.587 448.014 822.486 400.157 1063.41 520.51C1304.33 640.863 1379.82 791.494 1259.47 1032.42C1139.12 1273.34 1068.93 1028.37 885.642 860.448Z" stroke="#F5F5F5" stroke-miterlimit="10"/>
<path d="M897.105 859.257C668.65 659.854 310.765 940.067 431.315 698.751C551.864 457.435 829.782 404.885 1071.1 525.429C1312.41 645.974 1385.54 799.31 1264.99 1040.63C1144.44 1281.94 1085.84 1023.99 897.105 859.257Z" stroke="#F5F5F5" stroke-miterlimit="10"/>
<path d="M908.569 858.061C678.671 667.07 315.654 950.264 436.396 708.56C557.137 466.855 837.078 409.607 1078.78 530.349C1320.49 651.09 1391.25 807.131 1270.51 1048.84C1149.76 1290.54 1102.82 1019.44 908.569 858.061Z" stroke="#F5F5F5" stroke-miterlimit="10"/>
<path d="M920.029 856.87C688.677 674.133 320.535 960.467 441.473 718.368C562.411 476.27 844.37 414.33 1086.47 535.268C1328.57 656.206 1396.97 814.946 1276.03 1057.04C1155.09 1299.14 1119.86 1014.71 920.029 856.87Z" stroke="#F5F5F5" stroke-miterlimit="10"/>
<path d="M931.492 855.679C698.662 681.031 325.418 970.669 446.553 728.182C567.688 485.695 851.665 419.058 1094.15 540.193C1336.64 661.328 1402.68 822.767 1281.54 1065.26C1160.41 1307.75 1136.94 1009.79 931.492 855.679Z" stroke="#F5F5F5" stroke-miterlimit="10"/>
<path d="M942.955 854.489C708.607 687.762 330.302 980.871 451.634 737.991C572.966 495.11 858.961 423.78 1101.84 545.112C1344.72 666.444 1408.39 830.588 1287.06 1073.47C1165.73 1316.35 1154.06 1004.68 942.955 854.489Z" stroke="#F5F5F5" stroke-miterlimit="10"/>
<path d="M954.419 853.298C718.491 694.336 335.191 991.078 456.715 747.804C578.238 504.53 866.252 428.513 1109.53 550.037C1352.8 671.56 1414.1 838.408 1292.58 1081.68C1171.06 1324.96 1171.21 999.373 954.419 853.298Z" stroke="#F5F5F5" stroke-miterlimit="10"/>
<path d="M965.883 852.107C728.306 700.744 340.076 1001.28 461.796 757.618C583.517 513.955 873.549 433.241 1117.22 554.961C1360.88 676.681 1419.82 846.229 1298.1 1089.9C1176.38 1333.56 1188.38 993.864 965.883 852.107Z" stroke="#F5F5F5" stroke-miterlimit="10"/>
<path d="M977.346 850.911C738.028 706.99 344.96 1011.48 466.877 767.422C588.794 523.366 880.844 437.958 1124.9 559.876C1368.96 681.793 1425.53 854.045 1303.62 1098.1C1181.7 1342.15 1205.55 988.147 977.346 850.911Z" stroke="#F5F5F5" stroke-miterlimit="10"/>
<path d="M988.809 849.716C747.644 713.08 349.849 1021.67 471.957 777.23C594.066 532.786 888.139 442.681 1132.58 564.79C1377.03 686.899 1431.24 861.855 1309.13 1106.3C1187.03 1350.75 1222.72 982.233 988.809 849.716Z" stroke="#F5F5F5" stroke-miterlimit="10"/>
<path d="M1000.28 848.515C757.146 719.019 354.738 1031.87 477.044 787.029C599.349 542.191 895.441 447.394 1140.28 569.699C1385.12 692.005 1436.97 869.661 1314.66 1114.5C1192.35 1359.34 1239.86 976.123 1000.28 848.515Z" stroke="#F5F5F5" stroke-miterlimit="10"/>
<path d="M1011.75 847.314C766.515 724.811 359.627 1042.06 482.13 796.832C604.632 551.601 902.742 452.111 1147.97 574.614C1393.2 697.116 1442.68 877.476 1320.18 1122.7C1197.68 1367.93 1256.97 969.816 1011.75 847.314Z" stroke="#F5F5F5" stroke-miterlimit="10"/>
</svg>
